<svg xmlns="http://www.w3.org/2000/svg" width="20" height="20" viewBox="0 0 20 20" fill="none">
  <path d="M10.0001 1.66406C5.40008 1.66406 1.66675 5.3974 1.66675 9.9974C1.66675 14.5974 5.40008 18.3307 10.0001 18.3307C14.6001 18.3307 18.3334 14.5974 18.3334 9.9974C18.3334 5.3974 14.6001 1.66406 10.0001 1.66406ZM10.0001 16.6641C6.32508 16.6641 3.33341 13.6724 3.33341 9.9974C3.33341 6.3224 6.32508 3.33073 10.0001 3.33073C13.6751 3.33073 16.6667 6.3224 16.6667 9.9974C16.6667 13.6724 13.6751 16.6641 10.0001 16.6641ZM13.8251 6.31406L8.33342 11.8057L6.17508 9.65573L5.00008 10.8307L8.33342 14.1641L15.0001 7.4974L13.8251 6.31406Z" fill="#1C958F"/>
</svg>