<svg viewBox="0 0 17 16" fill="none" xmlns="http://www.w3.org/2000/svg">
<path d="M13.5485 14.2806C13.5124 14.3185 13.4689 14.3487 13.4206 14.3691C13.3724 14.3896 13.3205 14.4 13.2682 14.3996H3.68824C3.63587 14.4 3.58397 14.3897 3.53575 14.3692C3.48752 14.3487 3.444 14.3185 3.40787 14.2806C3.36999 14.2443 3.33991 14.2007 3.31948 14.1524C3.29905 14.1041 3.2887 14.0521 3.28907 13.9996V4.39961C3.28866 4.34713 3.29899 4.29512 3.31943 4.24679C3.33986 4.19847 3.36996 4.15486 3.40787 4.11865C3.44402 4.08069 3.48755 4.05055 3.53577 4.03007C3.58399 4.0096 3.63587 3.99923 3.68824 3.99961H6.08322C6.08322 3.34169 6.31825 2.77657 6.78831 2.30617C7.25772 1.83577 7.82166 1.59961 8.47821 1.59961C9.13475 1.59961 9.69869 1.83513 10.1681 2.30617C10.6375 2.77721 10.8732 3.34169 10.8732 3.99961H13.2682C13.3205 3.9992 13.3724 4.00955 13.4207 4.03002C13.4689 4.0505 13.5124 4.08066 13.5485 4.11865C13.5864 4.15488 13.6165 4.1985 13.6369 4.24682C13.6574 4.29514 13.6677 4.34713 13.6673 4.39961V13.9996C13.6676 14.0521 13.6572 14.104 13.6368 14.1523C13.6164 14.2006 13.5863 14.2443 13.5485 14.2806ZM12.8684 4.79961H10.8726V6.3996C10.873 6.4521 10.8627 6.50413 10.8423 6.55246C10.8219 6.6008 10.7917 6.6444 10.7538 6.68056C10.6746 6.75992 10.5807 6.7996 10.4734 6.7996C10.3661 6.7996 10.2722 6.75992 10.193 6.68056C10.1551 6.64435 10.125 6.60074 10.1046 6.55242C10.0841 6.50409 10.0738 6.45208 10.0742 6.3996V4.79961H6.88091V6.3996C6.8814 6.4521 6.8711 6.50413 6.85067 6.55246C6.83023 6.6008 6.80009 6.6444 6.76212 6.68056C6.68293 6.75992 6.58904 6.7996 6.48175 6.7996C6.37445 6.7996 6.28057 6.75992 6.20137 6.68056C6.16347 6.64435 6.13337 6.60074 6.11293 6.55242C6.0925 6.50409 6.08217 6.45208 6.08258 6.3996V4.79961H4.08676V13.5996H12.8684V4.79961ZM7.34905 2.86809C7.19801 3.01463 7.07855 3.19065 6.99803 3.38526C6.91751 3.57987 6.87766 3.78896 6.88091 3.99961H10.0742C10.0742 3.55801 9.91839 3.18105 9.60672 2.86809C9.29505 2.55513 8.91888 2.39961 8.47757 2.39961C8.03625 2.39961 7.66072 2.55577 7.34905 2.86809Z" fill="white"/>
</svg>
