<svg width="48" height="48" viewBox="0 0 48 48" fill="none" xmlns="http://www.w3.org/2000/svg">
<rect x="0.25" y="47.75" width="47.5" height="47.5" rx="3.75" transform="rotate(-90 0.25 47.75)" fill="white"/>
<rect x="0.25" y="47.75" width="47.5" height="47.5" rx="3.75" transform="rotate(-90 0.25 47.75)" stroke="#7D7676" stroke-width="0.5"/>
<path d="M29.4739 30.535C29.7667 30.8278 30.2419 30.8278 30.5346 30.535C30.8273 30.2423 30.8273 29.7671 30.5346 29.4744L24.9386 23.8784L30.5368 18.2802C30.8295 17.9875 30.8295 17.5123 30.5368 17.2196C30.244 16.9268 29.7688 16.9268 29.4761 17.2196L23.878 22.8177L18.2826 17.2223C17.9898 16.9296 17.5146 16.9296 17.2219 17.2223C16.9292 17.5151 16.9292 17.9902 17.2219 18.283L22.8173 23.8784L17.2198 29.4758C16.9264 29.7693 16.9271 30.2438 17.2198 30.5365C17.5126 30.8292 17.987 30.8299 18.2805 30.5365L23.878 24.939L29.4739 30.535Z" fill="var(--textHeading, #26201a)"/>
</svg>
