<svg xmlns="http://www.w3.org/2000/svg" width="240" height="240" viewBox="0 0 240 240" fill="none">
  <path d="M142.969 188H41.3457C40.7037 188 40.1992 187.496 40.1992 186.854C40.1992 186.211 40.7037 185.707 41.3457 185.707H142.946C143.588 185.707 144.092 186.211 144.092 186.854C144.092 187.496 143.588 188 142.946 188H142.969Z" fill="var(--buttonPrimary)"/>
  <path d="M192.678 188H152.689C152.047 188 151.543 187.496 151.543 186.854C151.543 186.211 152.047 185.707 152.689 185.707H192.678C193.32 185.707 193.825 186.211 193.825 186.854C193.825 187.496 193.32 188 192.678 188Z" fill="var(--buttonPrimary)"/>
  <path d="M190.006 183.475L188.906 184.369C185.26 187.35 179.871 186.823 176.868 183.177L143.047 137.548L153.113 129.293L191.176 171.46C194.157 175.106 193.629 180.494 189.983 183.498L190.006 183.475Z" fill="var(--buttonPrimary)"/>
  <path d="M80.6284 74.6563C67.0542 96.3017 73.5891 124.849 95.2344 138.423C110.597 148.053 129.422 147.549 143.914 138.721C147.628 136.474 151.045 133.654 154.048 130.329C155.86 128.357 157.511 126.179 159.001 123.817C172.575 102.172 166.04 73.6245 144.395 60.0503C122.75 46.4761 94.2026 53.011 80.6284 74.6563ZM150.815 118.681C140.084 135.809 117.476 140.968 100.371 130.237C83.2424 119.506 78.0833 96.8978 88.8142 79.7925C99.5452 62.6642 122.154 57.4822 139.259 68.2361C156.387 78.967 161.569 101.575 150.815 118.681Z" fill="var(--buttonPrimary)"/>
  <path d="M89.1566 164.656C88.2165 161.377 90.1196 157.961 93.3985 157.021C94.224 156.791 94.7055 155.92 94.4762 155.072C94.2469 154.223 93.3756 153.765 92.5272 153.994C89.2483 154.934 85.8318 153.031 84.8917 149.752C84.6624 148.927 83.7911 148.445 82.9427 148.674C82.0943 148.904 81.6357 149.775 81.865 150.623C82.8051 153.902 80.902 157.319 77.6231 158.259C76.7976 158.488 76.3161 159.359 76.5454 160.208C76.7747 161.056 77.646 161.515 78.4944 161.285C81.7733 160.345 85.1898 162.249 86.1299 165.527C86.3592 166.353 87.2305 166.834 88.0789 166.605C88.9273 166.376 89.3859 165.504 89.1566 164.656Z" fill="var(--buttonPrimary)"/>
  <path d="M172.137 60.117C174.378 60.117 176.195 58.3 176.195 56.0585C176.195 53.8171 174.378 52 172.137 52C169.895 52 168.078 53.8171 168.078 56.0585C168.078 58.3 169.895 60.117 172.137 60.117Z" stroke="var(--buttonPrimary)" stroke-miterlimit="10"/>
  <path d="M61.8681 83.5547H35.4993C34.119 83.5547 33 84.6737 33 86.054V112.423C33 113.803 34.119 114.922 35.4993 114.922H61.8681C63.2484 114.922 64.3674 113.803 64.3674 112.423V86.054C64.3674 84.6737 63.2484 83.5547 61.8681 83.5547Z" fill="var(--buttonPrimary)"/>
  <path d="M53.3634 83.5547H50.7266V114.922H53.3634V83.5547Z" fill="var(--pageBackground)"/>
  <path d="M46.6447 83.5547H44.0078V114.922H46.6447V83.5547Z" fill="var(--pageBackground)"/>
  <path d="M206.613 112.423V86.054C206.613 84.6737 205.494 83.5547 204.114 83.5547H177.745C176.365 83.5547 175.246 84.6737 175.246 86.054V112.423C175.246 113.803 176.365 114.922 177.745 114.922H204.114C205.494 114.922 206.613 113.803 206.613 112.423Z" fill="var(--buttonPrimary)"/>
  <path d="M206.645 103.918V101.281H175.277V103.918H206.645Z" fill="var(--pageBackground)"/>
  <path d="M206.613 97.1994V94.5625H175.246V97.1994H206.613Z" fill="var(--pageBackground)"/>
  <path d="M138.086 77.5H101.559C99.6346 77.5 98.0742 79.0604 98.0742 80.9853V117.512C98.0742 119.437 99.6346 120.997 101.559 120.997H138.086C140.011 120.997 141.571 119.437 141.571 117.512V80.9853C141.571 79.0604 140.011 77.5 138.086 77.5Z" fill="var(--buttonPrimary)"/>
  <path d="M121.645 77.5H117.977V120.997H121.645V77.5Z" fill="var(--pageBackground)"/>
</svg>