<svg xmlns="http://www.w3.org/2000/svg" width="14" height="14" viewBox="0 0 14 14" fill="none">
<path d="M13.027 1.85647L11.4013 0.456213C10.6963 -0.151382 9.67327 -0.151382 8.96826 0.456213L7.00158 2.14999L5.03648 0.456213C4.33148 -0.151382 3.31008 -0.152208 2.60428 0.454561L0.974632 1.85643C0.356849 2.38756 0 3.17609 0 4.00819V7.49548C0 8.32603 0.356295 9.11352 0.972242 9.64447L5.27597 13.3543C6.2752 14.2152 7.72483 14.2152 8.72323 13.3543L13.027 9.64447C13.6434 9.11309 14 8.32492 14 7.49372V4.00654C14 3.17609 13.6432 2.38764 13.027 1.85647ZM12.7312 7.26337C12.7312 7.84963 12.479 8.40623 12.0444 8.78117L8.2165 12.0807C7.51149 12.6883 6.48851 12.6883 5.78271 12.0807L1.95477 8.78117C1.52019 8.40623 1.26882 7.84959 1.26882 7.26337V4.23926C1.26882 3.65217 1.52102 3.09558 1.95716 2.72063L3.11018 1.72904C3.52176 1.37468 4.11814 1.37547 4.52892 1.72987L6.00869 3.00514L3.84931 4.8642C3.31559 5.32462 3.31479 6.17399 3.84851 6.63441L6.28545 8.74012C6.69703 9.09531 7.29417 9.09614 7.70575 8.74095L10.1499 6.63441C10.6836 6.17399 10.6836 5.32462 10.1499 4.8642L8.96335 3.84155C8.9046 3.79091 8.81939 3.79091 8.7606 3.84151L8.01594 4.48286C7.9396 4.54859 7.93959 4.67005 8.0159 4.73581L8.89847 5.49647C9.05154 5.62802 9.05154 5.87058 8.89847 6.00214L7.19981 7.46733C7.08166 7.56846 6.91113 7.56846 6.79378 7.4665L5.09991 6.00293C4.94767 5.87137 4.94767 5.62881 5.1007 5.49726L6.47185 4.31655L6.79856 4.03534L7.99363 3.00593L8.94287 2.18864L9.47499 1.72983C9.88657 1.37547 10.4829 1.37547 10.8937 1.72983L12.0444 2.7206C12.479 3.09554 12.7311 3.65135 12.7311 4.2384V7.26333L12.7312 7.26337Z" fill="black"/>
</svg>