<svg width="200" height="200" viewBox="0 0 200 200" fill="none" xmlns="http://www.w3.org/2000/svg">
<path d="M150.964 45.8217C148.687 43.5446 148.687 39.8361 150.964 37.5589C151.55 36.9734 151.55 36.0408 150.964 35.4553C150.379 34.8697 149.446 34.8697 148.861 35.4553C146.584 37.7324 142.875 37.7324 140.598 35.4553C140.012 34.8697 139.08 34.8697 138.494 35.4553C137.909 36.0408 137.909 36.9734 138.494 37.5589C140.771 39.8361 140.771 43.5446 138.494 45.8217C137.909 46.4072 137.909 47.3398 138.494 47.9253C139.08 48.5109 140.012 48.5109 140.598 47.9253C142.875 45.6482 146.584 45.6482 148.861 47.9253C149.446 48.5109 150.379 48.5109 150.964 47.9253C151.55 47.3398 151.55 46.4072 150.964 45.8217Z" fill="var(--buttonPrimary)"/>
<path d="M122.251 96.2871C143.352 96.2871 160.442 110.666 160.442 128.384C160.442 137.514 155.887 145.755 148.601 151.589L151.116 161.522C151.572 163.344 149.858 164.948 148.08 164.384L132.314 159.331C129.104 160.069 125.742 160.481 122.251 160.481C101.149 160.481 84.0598 146.102 84.0598 128.384C84.0598 110.666 101.171 96.2871 122.251 96.2871Z" fill="var(--buttonPrimary)"/>
<path d="M78.4213 35C45.3703 35 18.5 57.7497 18.5 85.7043C18.5 99.3238 24.7459 112.032 36.1099 121.618L32.64 135.303C32.2062 137.038 32.5749 138.859 33.6809 140.269C34.7653 141.679 36.4786 142.503 38.2352 142.503C38.8425 142.503 39.428 142.416 40.0136 142.221L63.3055 134.76C68.2718 135.845 73.3683 136.409 78.4213 136.409C111.472 136.409 138.343 113.659 138.343 85.7043C138.343 57.7497 111.451 35 78.4213 35Z" fill="var(--pageBackground)"/>
<path d="M78.4216 37.1685C46.5199 37.1685 20.6689 58.8989 20.6689 85.7041C20.6689 99.5188 27.5437 111.967 38.5608 120.815L34.7655 135.823C34.0715 138.577 36.674 141.006 39.3632 140.139L63.219 132.505C68.0769 133.611 73.1733 134.24 78.4433 134.24C110.345 134.24 136.196 112.509 136.196 85.7041C136.196 58.8989 110.345 37.1685 78.4433 37.1685H78.4216Z" fill="var(--buttonPrimary)"/>
<path d="M57.0162 91.0392C60.0225 91.0392 62.4597 88.6021 62.4597 85.5958C62.4597 82.5895 60.0225 80.1523 57.0162 80.1523C54.0099 80.1523 51.5728 82.5895 51.5728 85.5958C51.5728 88.6021 54.0099 91.0392 57.0162 91.0392Z" fill="var(--pageBackground)"/>
<path d="M78.4215 91.0392C81.4278 91.0392 83.8649 88.6021 83.8649 85.5958C83.8649 82.5895 81.4278 80.1523 78.4215 80.1523C75.4151 80.1523 72.978 82.5895 72.978 85.5958C72.978 88.6021 75.4151 91.0392 78.4215 91.0392Z" fill="var(--pageBackground)"/>
<path d="M99.8048 91.0392C102.811 91.0392 105.248 88.6021 105.248 85.5958C105.248 82.5895 102.811 80.1523 99.8048 80.1523C96.7984 80.1523 94.3613 82.5895 94.3613 85.5958C94.3613 88.6021 96.7984 91.0392 99.8048 91.0392Z" fill="var(--pageBackground)"/>
<path d="M68.9658 151.503C71.0858 151.503 72.8044 149.784 72.8044 147.664C72.8044 145.544 71.0858 143.826 68.9658 143.826C66.8458 143.826 65.1272 145.544 65.1272 147.664C65.1272 149.784 66.8458 151.503 68.9658 151.503Z" fill="var(--buttonPrimary)" stroke="var(--pageBackground)" stroke-miterlimit="10"/>
<path d="M181.5 76.4007C181.5 85.9647 173.714 93.7504 164.172 93.7504C154.63 93.7504 146.823 85.9647 146.823 76.4007C146.823 66.8367 154.608 59.0728 164.172 59.0728C173.736 59.0728 181.5 66.8367 181.5 76.4007Z" fill="var(--buttonPrimary)"/>
<path d="M164.172 89.2605C163.348 89.2605 162.632 88.9568 162.047 88.3713C161.461 87.7857 161.157 87.0701 161.157 86.2243C161.157 85.3785 161.461 84.7062 162.047 84.1206C162.632 83.5351 163.348 83.2315 164.172 83.2315C164.996 83.2315 165.668 83.5351 166.276 84.1206C166.883 84.7062 167.186 85.4002 167.186 86.2243C167.186 86.7881 167.035 87.2869 166.753 87.7424C166.471 88.1978 166.102 88.5665 165.647 88.8267C165.191 89.087 164.692 89.2388 164.15 89.2388L164.172 89.2605ZM167.078 65.9686L166.601 80.8242C166.601 81.2796 166.211 81.6266 165.755 81.6266H162.589C162.133 81.6266 161.765 81.2579 161.743 80.8242L161.266 65.9686C161.266 65.4914 161.635 65.1011 162.112 65.1011H166.232C166.709 65.1011 167.078 65.4914 167.078 65.9686Z" fill="var(--pageBackground)"/>
</svg>
