<svg xmlns="http://www.w3.org/2000/svg" width="24" height="25" viewBox="0 0 24 25" fill="none">
<path d="M20 8.5H17V4.5H3C1.9 4.5 1 5.4 1 6.5V17.5H3C3 19.16 4.34 20.5 6 20.5C7.66 20.5 9 19.16 9 17.5H15C15 19.16 16.34 20.5 18 20.5C19.66 20.5 21 19.16 21 17.5H23V12.5L20 8.5ZM19.5 10L21.46 12.5H17V10H19.5ZM6 18.5C5.45 18.5 5 18.05 5 17.5C5 16.95 5.45 16.5 6 16.5C6.55 16.5 7 16.95 7 17.5C7 18.05 6.55 18.5 6 18.5ZM8.22 15.5C7.67 14.89 6.89 14.5 6 14.5C5.11 14.5 4.33 14.89 3.78 15.5H3V6.5H15V15.5H8.22ZM18 18.5C17.45 18.5 17 18.05 17 17.5C17 16.95 17.45 16.5 18 16.5C18.55 16.5 19 16.95 19 17.5C19 18.05 18.55 18.5 18 18.5Z" fill="var(--textHeading)"/>
</svg>