<svg xmlns="http://www.w3.org/2000/svg" width="240" height="240" viewBox="0 0 240 240" fill="none">
<path d="M159.476 191.492H30.3349C29.5874 191.492 29 190.905 29 190.157C29 189.41 29.5874 188.822 30.3349 188.822H159.476C160.224 188.822 160.811 189.41 160.811 190.157C160.811 190.905 160.224 191.492 159.476 191.492Z" fill="var(--buttonPrimary)"/>
<path d="M186.767 58.3469V133.157C184.818 132.783 182.789 132.596 180.733 132.596C163.032 132.596 148.694 146.933 148.694 164.634C148.694 174.299 152.966 182.95 159.721 188.823H56.2903C50.0161 188.823 44.9434 183.751 44.9434 177.476V58.3469C44.9434 52.0727 50.0161 47 56.2903 47H175.42C181.694 47 186.767 52.0727 186.767 58.3469Z" fill="var(--buttonPrimary)"/>
<path d="M131.421 99.8911L117.111 94.1509C116.337 93.8305 115.456 93.8305 114.655 94.1509L100.344 99.8911C98.1815 100.745 95.832 99.1703 95.832 96.8475V53.8359H135.933V96.8475C135.933 99.1703 133.584 100.772 131.421 99.8911Z" fill="white"/>
<path d="M180.726 193.999C196.946 193.999 210.094 180.85 210.094 164.63C210.094 148.41 196.946 135.262 180.726 135.262C164.506 135.262 151.357 148.41 151.357 164.63C151.357 180.85 164.506 193.999 180.726 193.999Z" fill="var(--buttonPrimary)"/>
<path d="M183.472 147.917C183.472 146.384 182.235 145.141 180.709 145.141C179.182 145.141 177.945 146.384 177.945 147.917V165.058C177.945 166.591 179.182 167.834 180.709 167.834C182.235 167.834 183.472 166.591 183.472 165.058V147.917Z" fill="white"/>
<path d="M193.664 181.929C194.748 183.013 196.502 183.017 197.581 181.938C198.66 180.859 198.656 179.105 197.572 178.021L182.695 163.144C181.611 162.06 179.857 162.056 178.778 163.135C177.699 164.214 177.703 165.968 178.787 167.052L193.664 181.929Z" fill="white"/>
</svg>